<svg width="480" height="416" viewBox="0 0 480 416" fill="none" xmlns="http://www.w3.org/2000/svg">
<path d="M170.61 416H143.99C141.315 415.999 138.683 415.328 136.335 414.047C133.987 412.767 131.997 410.918 130.547 408.67C129.098 406.421 128.235 403.846 128.038 401.178C127.841 398.511 128.316 395.837 129.42 393.4L193.88 251.15L97.0897 249L61.7897 291.77C55.0597 300.23 49.6897 304 35.9897 304H18.0697C15.2324 304.091 12.415 303.497 9.85603 302.268C7.2971 301.039 5.07215 299.212 3.36972 296.94C0.989722 293.73 -1.35028 288.29 0.929723 280.53L20.7497 209.53C20.8997 209 21.0797 208.47 21.2797 207.95C21.2897 207.9 21.2897 207.85 21.2797 207.8C21.0732 207.28 20.8963 206.75 20.7497 206.21L0.909723 134.76C-1.24028 127.15 1.10972 121.83 3.46972 118.7C5.05448 116.597 7.11053 114.896 9.47257 113.732C11.8346 112.568 14.4367 111.975 17.0697 112H35.9897C46.2197 112 56.1497 116.59 61.9897 124L96.5597 166.05L193.88 164.61L129.44 22.61C128.335 20.1745 127.858 17.5009 128.053 14.8336C128.248 12.1664 129.108 9.59051 130.556 7.34155C132.003 5.09259 133.991 3.24228 136.338 1.95977C138.684 0.677266 141.315 0.00347389 143.99 0H170.9C174.654 0.075444 178.343 0.995619 181.693 2.6922C185.043 4.38878 187.967 6.81818 190.25 9.8L315.3 161.8L373.07 160.28C377.3 160.05 389.02 159.97 391.73 159.97C446.99 160 479.99 177.94 479.99 208C479.99 217.46 476.21 235 450.92 246.16C435.99 252.76 416.07 256.1 391.71 256.1C389.03 256.1 377.34 256.02 373.05 255.79L315.29 254.25L189.93 406.25C187.646 409.219 184.723 411.636 181.379 413.324C178.035 415.011 174.355 415.926 170.61 416V416Z" fill="#0C73FE"/>
</svg>
